<svg width="1400" height="420" viewBox="0 0 1400 420" xmlns="http://www.w3.org/2000/svg">
  
  <defs>
    <linearGradient id="bg" x1="0" y1="0" x2="1" y2="1">
      <stop offset="0%" stop-color="#0B1120"/>
      <stop offset="55%" stop-color="#0F172A"/>
      <stop offset="100%" stop-color="#0B1120"/>
    </linearGradient>
    <linearGradient id="cyanPurple" x1="0" y1="0" x2="1" y2="0">
      <stop offset="0%" stop-color="#00F7FF"/>
      <stop offset="100%" stop-color="#8B5CF6"/>
    </linearGradient>
    <linearGradient id="cubeTop" x1="0" y1="0" x2="1" y2="1">
      <stop offset="0%" stop-color="#22D3EE"/>
      <stop offset="100%" stop-color="#0EA5B7"/>
    </linearGradient>
    <linearGradient id="cubeLeft" x1="0" y1="0" x2="1" y2="1">
      <stop offset="0%" stop-color="#0F766E"/>
      <stop offset="100%" stop-color="#0B4F4A"/>
    </linearGradient>
    <linearGradient id="cubeRight" x1="0" y1="0" x2="1" y2="1">
      <stop offset="0%" stop-color="#155E63"/>
      <stop offset="100%" stop-color="#0A3438"/>
    </linearGradient>
    <linearGradient id="cubeTopViolet" x1="0" y1="0" x2="1" y2="1">
      <stop offset="0%" stop-color="#A78BFA"/>
      <stop offset="100%" stop-color="#7C3AED"/>
    </linearGradient>
    <linearGradient id="cubeLeftViolet" x1="0" y1="0" x2="1" y2="1">
      <stop offset="0%" stop-color="#5B21B6"/>
      <stop offset="100%" stop-color="#3B1370"/>
    </linearGradient>
    <linearGradient id="cubeRightViolet" x1="0" y1="0" x2="1" y2="1">
      <stop offset="0%" stop-color="#6D28D9"/>
      <stop offset="100%" stop-color="#2E1065"/>
    </linearGradient>
    <filter id="glow" x="-60%" y="-60%" width="220%" height="220%">
      <feGaussianBlur stdDeviation="10" result="blur"/>
      <feMerge>
        <feMergeNode in="blur"/>
        <feMergeNode in="SourceGraphic"/>
      </feMerge>
    </filter>
    <filter id="softShadow" x="-40%" y="-40%" width="180%" height="180%">
      <feDropShadow dx="0" dy="6" stdDeviation="8" flood-color="#000000" flood-opacity="0.45"/>
    </filter>
  </defs>

  <rect width="1400" height="420" fill="url(#bg)"/>
  <rect width="1400" height="420" fill="url(#bg)"/>
  
    <g transform="translate(90,60)" filter="url(#softShadow)">
      <polygon points="0,19.25 35.0,0 70,19.25 35.0,38.5" fill="url(#cubeTop)"/>
      <polygon points="0,19.25 35.0,38.5 35.0,77.0 0,57.75" fill="url(#cubeLeft)"/>
      <polygon points="70,19.25 35.0,38.5 35.0,77.0 70,57.75" fill="url(#cubeRight)"/>
    </g>
    
    <g transform="translate(1180,70)" filter="url(#softShadow)">
      <polygon points="0,24.750000000000004 45.0,0 90,24.750000000000004 45.0,49.50000000000001" fill="url(#cubeTopViolet)"/>
      <polygon points="0,24.750000000000004 45.0,49.50000000000001 45.0,99.00000000000001 0,74.25000000000001" fill="url(#cubeLeftViolet)"/>
      <polygon points="90,24.750000000000004 45.0,49.50000000000001 45.0,99.00000000000001 90,74.25000000000001" fill="url(#cubeRightViolet)"/>
    </g>
    
    <g transform="translate(60,300)" filter="url(#softShadow)">
      <polygon points="0,15.125000000000002 27.5,0 55,15.125000000000002 27.5,30.250000000000004" fill="url(#cubeTopViolet)"/>
      <polygon points="0,15.125000000000002 27.5,30.250000000000004 27.5,60.50000000000001 0,45.37500000000001" fill="url(#cubeLeftViolet)"/>
      <polygon points="55,15.125000000000002 27.5,30.250000000000004 27.5,60.50000000000001 55,45.37500000000001" fill="url(#cubeRightViolet)"/>
    </g>
    
    <g transform="translate(1250,300)" filter="url(#softShadow)">
      <polygon points="0,16.5 30.0,0 60,16.5 30.0,33.0" fill="url(#cubeTop)"/>
      <polygon points="0,16.5 30.0,33.0 30.0,66.0 0,49.5" fill="url(#cubeLeft)"/>
      <polygon points="60,16.5 30.0,33.0 30.0,66.0 60,49.5" fill="url(#cubeRight)"/>
    </g>
    
    <g transform="translate(1120,250)" filter="url(#softShadow)">
      <polygon points="0,11.0 20.0,0 40,11.0 20.0,22.0" fill="url(#cubeTopViolet)"/>
      <polygon points="0,11.0 20.0,22.0 20.0,44.0 0,33.0" fill="url(#cubeLeftViolet)"/>
      <polygon points="40,11.0 20.0,22.0 20.0,44.0 40,33.0" fill="url(#cubeRightViolet)"/>
    </g>
    
    <g transform="translate(150,250)" filter="url(#softShadow)">
      <polygon points="0,9.9 18.0,0 36,9.9 18.0,19.8" fill="url(#cubeTop)"/>
      <polygon points="0,9.9 18.0,19.8 18.0,39.6 0,29.700000000000003" fill="url(#cubeLeft)"/>
      <polygon points="36,9.9 18.0,19.8 18.0,39.6 36,29.700000000000003" fill="url(#cubeRight)"/>
    </g>
    
  <g filter="url(#glow)">
    <text x="700" y="200" text-anchor="middle" font-family="Arial, Helvetica, sans-serif" font-weight="800" font-size="72" fill="url(#cyanPurple)">AMANDEEP KUMAR</text>
  </g>
  <text x="700" y="250" text-anchor="middle" font-family="Arial, Helvetica, sans-serif" font-weight="500" font-size="24" fill="#9CA3AF">Backend Engineer &#183; System Design &#183; Cloud Architecture</text>
  <line x1="480" y1="285" x2="920" y2="285" stroke="url(#cyanPurple)" stroke-width="2" opacity="0.6"/>
  <text x="700" y="330" text-anchor="middle" font-family="Arial, Helvetica, sans-serif" font-weight="400" font-size="17" fill="#64748B">Designing Scalable Systems &#8226; Clean Architecture &#8226; Precision Engineering</text>
</svg>